<svg width="191" height="181" viewBox="0 0 191 181" fill="none" xmlns="http://www.w3.org/2000/svg">
<path d="M90.7447 3.63525C92.2415 -0.9713 98.7585 -0.971297 100.255 3.63526L119.186 61.8987C119.856 63.9588 121.775 65.3536 123.942 65.3536H185.203C190.047 65.3536 192.061 71.5517 188.142 74.3987L138.58 110.408C136.828 111.681 136.095 113.938 136.764 115.998L155.695 174.261C157.192 178.868 151.919 182.698 148.001 179.851L98.4389 143.842C96.6865 142.569 94.3135 142.569 92.5611 143.842L42.9992 179.851C39.0807 182.698 33.8082 178.868 35.305 174.261L54.236 115.998C54.9053 113.938 54.172 111.681 52.4196 110.408L2.85775 74.3987C-1.06082 71.5517 0.953057 65.3536 5.79667 65.3536H67.0585C69.2246 65.3536 71.1444 63.9588 71.8138 61.8987L90.7447 3.63525Z" fill="#FFCF40"/>
</svg>
