<svg width="138" height="65" viewBox="0 0 138 65" fill="none" xmlns="http://www.w3.org/2000/svg">
<path d="M12.2906 50.0948C11.3875 50.0948 10.6267 50.4165 10.0082 51.0598C9.3896 51.7031 9.08032 52.4825 9.08032 53.3979C9.08032 54.3134 9.3896 55.0928 10.0082 55.7361C10.6267 56.367 11.3875 56.6825 12.2906 56.6825C13.1937 56.6825 13.9545 56.367 14.5731 55.7361C15.1917 55.0928 15.5009 54.3134 15.5009 53.3979C15.5009 52.4825 15.1917 51.7031 14.5731 51.0598C13.9545 50.4165 13.1937 50.0948 12.2906 50.0948ZM12.2906 58.0928C10.9298 58.0928 9.79166 57.6474 8.8762 56.7567C7.96073 55.8536 7.503 54.734 7.503 53.3979C7.503 52.0619 7.96073 50.9485 8.8762 50.0577C9.79166 49.1546 10.9298 48.7031 12.2906 48.7031C13.6515 48.7031 14.7896 49.1546 15.7051 50.0577C16.6205 50.9485 17.0783 52.0619 17.0783 53.3979C17.0783 54.734 16.6143 55.8474 15.6865 56.7381C14.7587 57.6412 13.6267 58.0928 12.2906 58.0928ZM25.8231 48.9258H27.3448V58H25.6932L20.553 51.3753V58H19.0128V48.9258H20.553L25.8231 55.699V48.9258ZM29.8761 58V48.9258H31.4163V56.5526H35.5545V58H29.8761ZM37.2238 48.9258H38.764V58H37.2238V48.9258ZM48.077 48.9258H49.5987V58H47.9472L42.8069 51.3753V58H41.2667V48.9258H42.8069L48.077 55.699V48.9258ZM58.5135 48.9258V50.3546H53.6702V52.767H58.0125V54.1216H53.6702V56.5526H58.662V58H52.13V48.9258H58.5135ZM64.1886 58V48.9258H65.7288V56.5526H69.867V58H64.1886ZM75.7301 50.0948C74.827 50.0948 74.0662 50.4165 73.4476 51.0598C72.8291 51.7031 72.5198 52.4825 72.5198 53.3979C72.5198 54.3134 72.8291 55.0928 73.4476 55.7361C74.0662 56.367 74.827 56.6825 75.7301 56.6825C76.6332 56.6825 77.394 56.367 78.0126 55.7361C78.6311 55.0928 78.9404 54.3134 78.9404 53.3979C78.9404 52.4825 78.6311 51.7031 78.0126 51.0598C77.394 50.4165 76.6332 50.0948 75.7301 50.0948ZM75.7301 58.0928C74.3693 58.0928 73.2311 57.6474 72.3157 56.7567C71.4002 55.8536 70.9425 54.734 70.9425 53.3979C70.9425 52.0619 71.4002 50.9485 72.3157 50.0577C73.2311 49.1546 74.3693 48.7031 75.7301 48.7031C77.0909 48.7031 78.2291 49.1546 79.1445 50.0577C80.06 50.9485 80.5177 52.0619 80.5177 53.3979C80.5177 54.734 80.0538 55.8474 79.126 56.7381C78.1981 57.6412 77.0662 58.0928 75.7301 58.0928ZM88.743 53.5835H90.2647V56.6825C89.411 57.6351 88.1863 58.1113 86.5904 58.1113C85.242 58.1113 84.1162 57.666 83.2131 56.7753C82.31 55.8845 81.8585 54.7711 81.8585 53.4351C81.8585 52.099 82.3162 50.9794 83.2317 50.0763C84.1595 49.1608 85.2791 48.7031 86.5904 48.7031C87.9018 48.7031 88.9904 49.0804 89.8564 49.8351L89.0399 51.0041C88.409 50.4722 87.6358 50.2062 86.7203 50.2062C85.7925 50.2062 85.0131 50.5093 84.3822 51.1155C83.7636 51.7093 83.4543 52.4825 83.4543 53.4351C83.4543 54.3876 83.7513 55.1608 84.3451 55.7546C84.9513 56.3361 85.6997 56.6268 86.5904 56.6268C87.4564 56.6268 88.1739 56.4412 88.743 56.0701V53.5835ZM92.296 58V48.9258H95.8218C97.096 48.9258 97.962 49.1979 98.4197 49.7423C98.828 50.2 99.0321 50.7258 99.0321 51.3196C99.0321 52.0371 98.8094 52.5691 98.3641 52.9155C98.2156 53.0268 97.9929 53.1505 97.696 53.2866C98.2651 53.4103 98.7105 53.6639 99.0321 54.0474C99.3661 54.4309 99.5331 54.9072 99.5331 55.4763C99.5331 56.1938 99.2734 56.7938 98.7538 57.2763C98.2466 57.7588 97.4177 58 96.2672 58H92.296ZM93.8362 52.6928H95.7661C96.8795 52.6928 97.4362 52.3155 97.4362 51.5608C97.4362 51.1278 97.3002 50.8186 97.028 50.633C96.7682 50.4351 96.3538 50.3361 95.7847 50.3361H93.8362V52.6928ZM93.8362 56.5897H96.2301C96.8239 56.5897 97.263 56.4969 97.5476 56.3113C97.8321 56.1134 97.9744 55.7794 97.9744 55.3093C97.9744 54.5052 97.3311 54.1031 96.0445 54.1031H93.8362V56.5897ZM105.648 50.0948C104.745 50.0948 103.984 50.4165 103.366 51.0598C102.747 51.7031 102.438 52.4825 102.438 53.3979C102.438 54.3134 102.747 55.0928 103.366 55.7361C103.984 56.367 104.745 56.6825 105.648 56.6825C106.551 56.6825 107.312 56.367 107.931 55.7361C108.549 55.0928 108.858 54.3134 108.858 53.3979C108.858 52.4825 108.549 51.7031 107.931 51.0598C107.312 50.4165 106.551 50.0948 105.648 50.0948ZM105.648 58.0928C104.287 58.0928 103.149 57.6474 102.234 56.7567C101.318 55.8536 100.86 54.734 100.86 53.3979C100.86 52.0619 101.318 50.9485 102.234 50.0577C103.149 49.1546 104.287 48.7031 105.648 48.7031C107.009 48.7031 108.147 49.1546 109.062 50.0577C109.978 50.9485 110.436 52.0619 110.436 53.3979C110.436 54.734 109.972 55.8474 109.044 56.7381C108.116 57.6412 106.984 58.0928 105.648 58.0928ZM116.564 50.0948C115.661 50.0948 114.9 50.4165 114.282 51.0598C113.663 51.7031 113.354 52.4825 113.354 53.3979C113.354 54.3134 113.663 55.0928 114.282 55.7361C114.9 56.367 115.661 56.6825 116.564 56.6825C117.467 56.6825 118.228 56.367 118.847 55.7361C119.465 55.0928 119.774 54.3134 119.774 53.3979C119.774 52.4825 119.465 51.7031 118.847 51.0598C118.228 50.4165 117.467 50.0948 116.564 50.0948ZM116.564 58.0928C115.203 58.0928 114.065 57.6474 113.15 56.7567C112.234 55.8536 111.776 54.734 111.776 53.3979C111.776 52.0619 112.234 50.9485 113.15 50.0577C114.065 49.1546 115.203 48.7031 116.564 48.7031C117.925 48.7031 119.063 49.1546 119.979 50.0577C120.894 50.9485 121.352 52.0619 121.352 53.3979C121.352 54.734 120.888 55.8474 119.96 56.7381C119.032 57.6412 117.9 58.0928 116.564 58.0928ZM123.286 48.9258H124.826V53.3423L128.983 48.9258H130.913L127.276 52.8969L130.969 58H129.15L126.144 54.0289L124.826 55.4577V58H123.286V48.9258Z" fill="#FFDFDF"/>
<path d="M4.83984 25.3359L4.78125 16.7031H28.6875L28.0625 25.6484L24.4883 25.043L23.2383 20.0625H20.0352V36.9375L24.1758 38.0117L23.8633 41H9.07812L9.33203 38.2656L12.9844 36.918V20.0625H9.85938L8.16016 25.8438L4.83984 25.3359ZM48.8438 40.082C46.9036 41.0456 44.7161 41.5273 42.2812 41.5273C39.5599 41.5273 37.2878 41 35.4648 39.9453C33.6549 38.8906 32.3073 37.4193 31.4219 35.5312C30.5495 33.6432 30.1133 31.4362 30.1133 28.9102C30.1133 26.4102 30.6341 24.2031 31.6758 22.2891C32.7174 20.362 34.2083 18.8711 36.1484 17.8164C38.1016 16.7487 40.4062 16.2148 43.0625 16.2148C46.8255 16.2148 49.7812 17.237 51.9297 19.2812C54.0781 21.3255 55.1523 24.5742 55.1523 29.0273C55.1523 31.6576 54.5859 33.9167 53.4531 35.8047C52.3333 37.6797 50.7969 39.1055 48.8438 40.082ZM45.1914 21.4297C44.4622 20.2318 43.4531 19.6328 42.1641 19.6328C40.7318 19.6328 39.6901 20.3424 39.0391 21.7617C38.401 23.168 38.082 25.2122 38.082 27.8945C38.082 29.1445 38.2318 30.5312 38.5312 32.0547C38.8307 33.5781 39.3711 34.9193 40.1523 36.0781C40.9336 37.237 41.9883 37.8164 43.3164 37.8164C44.5534 37.8164 45.4844 37.1719 46.1094 35.8828C46.7474 34.5807 47.0664 32.556 47.0664 29.8086C47.0664 28.4935 46.9362 27.0677 46.6758 25.5312C46.4154 23.9818 45.9206 22.6146 45.1914 21.4297ZM72.457 37.7969L71.9883 41H56.5586L56.9883 38.3047L60.6406 36.7617V21.3125L56.9297 20.4531L57.1836 17.3477C59.5794 16.957 61.6172 16.6771 63.2969 16.5078C64.9896 16.3385 66.9557 16.2539 69.1953 16.2539C72.6589 16.2539 75.3086 16.8659 77.1445 18.0898C78.9805 19.3008 79.8984 21.3516 79.8984 24.2422C79.8984 25.8047 79.4883 27.237 78.668 28.5391C77.8607 29.8281 76.7214 30.8503 75.25 31.6055C73.7786 32.3607 72.0924 32.7383 70.1914 32.7383C69.7487 32.7383 69.2214 32.7057 68.6094 32.6406L67.9844 29.2422H68.3945C69.8008 29.2422 70.862 28.8906 71.5781 28.1875C72.3073 27.4844 72.6719 26.5469 72.6719 25.375C72.6719 23.9427 72.3464 22.7578 71.6953 21.8203C71.0443 20.8828 70.1003 20.4141 68.8633 20.4141C68.5117 20.4141 68.0755 20.4596 67.5547 20.5508V36.4492L72.457 37.7969ZM92.9062 41H81.2852L81.6562 38.3047L84.6055 36.293L92.1836 17.4648L98.9609 16.1953L106.578 36.3516L109.273 38.168L109.039 41.0391H95.0742L95.3867 38.3438L98.6289 36.3125L97.8867 34.125H90.2305L89.5078 36.3125L93.1992 38.1094L92.9062 41ZM94.0195 22.7773L91.5977 30.043H96.5L94.0195 22.7773ZM132.34 41H110.621L110.934 38.3047L114.059 36.7617V21.5078L110.699 19.5547L111.07 16.6836H125.582L125.172 19.5547L121.344 21.4688V37.0938L126.617 37.5234L130.016 32.1523L133.258 32.6016L132.34 41Z" fill="#EF7523"/>
</svg>
